<?xml version="1.0" encoding="utf-8"?>
<!-- Generator: Adobe Illustrator 26.4.1, SVG Export Plug-In . SVG Version: 6.00 Build 0)  -->
<!-- Copyright: kalanakt <https://github.com/kalanakt><https://t.me/kinu6> -->
<svg version="1.1" id="Layer_1" xmlns="http://www.w3.org/2000/svg" xmlns:xlink="http://www.w3.org/1999/xlink" x="0px" y="0px"
	 width="110" height="20" viewBox="0 0 110 20" style="enable-background:new 0 0 110 20;" xml:space="preserve">
<style type="text/css">
	.st0{fill:#CCA6C4;}
	.st1{fill:#494368;}
	.st2{fill:url(#SVGID_1_);}
	.st3{fill:#FFFFFF;}
	.st4{fill:url(#SVGID_00000176747741758586188230000007135758594766126984_);stroke:#FFFFFF;stroke-miterlimit:10;}
	.st5{fill:#C8DAEA;}
	.st6{fill:#A9C6D8;}
	.st7{fill:#261120;}
</style>
<g>
	<path class="st0" d="M0,0h34v20H0V0z"/>
	<path class="st1" d="M34,0h77v20H34V0z"/>
	
		<linearGradient id="SVGID_1_" gradientUnits="userSpaceOnUse" x1="-980.5811" y1="252.99" x2="-980.5811" y2="253.99" gradientTransform="matrix(111 0 0 20 108900 -5059.7998)">
		<stop  offset="0" style="stop-color:#BBBBBB;stop-opacity:0.1"/>
		<stop  offset="1" style="stop-color:#000000;stop-opacity:0.1"/>
	</linearGradient>
	<path class="st2" d="M0,0h111v20H0V0z"/>
</g>
<path d="M47,7.6c0.4,0,0.8,0.1,1,0.4c0.3,0.3,0.4,0.6,0.4,1v4.8h-5.2c-0.4,0-0.8-0.1-1-0.4s-0.4-0.6-0.4-1v-2.3h5.5V9
	c0-0.1,0-0.1-0.1-0.2c0,0-0.1-0.1-0.2-0.1h-5.2V7.6C41.7,7.6,47,7.6,47,7.6z M47.2,12.6v-1.4H43v1.1c0,0.1,0,0.1,0.1,0.2
	s0.1,0.1,0.2,0.1C43.2,12.6,47.2,12.6,47.2,12.6z M59.1,7.6h1.3l-2.5,6.2h-1l-2.2-4.6l-2.1,4.6l0,0l0,0h-1L49,7.6h1.3l1.8,4.1
	L54,7.6h1.4l2,4.1L59.1,7.6z M66,7.6c0.4,0,0.8,0.1,1.1,0.4c0.3,0.3,0.4,0.6,0.4,1v2.3H62v1.1c0,0.1,0,0.1,0.1,0.2
	c0,0,0.1,0.1,0.2,0.1h5.2v1.1h-5.2c-0.4,0-0.8-0.1-1-0.4s-0.4-0.6-0.4-1V9c0-0.4,0.2-0.7,0.4-1c0.3-0.3,0.6-0.4,1-0.4H66L66,7.6z
	 M62,10.1h4.3V9c0-0.1,0-0.1-0.1-0.2s-0.1,0-0.2,0h-3.8c-0.1,0-0.1,0-0.2,0.1s0,0,0,0.1L62,10.1L62,10.1z M75.4,9v0.2h-1.2V9
	c0-0.1,0-0.1-0.1-0.2s-0.1,0-0.2,0h-3.8c-0.1,0-0.1,0-0.2,0.1s0,0,0,0.1v0.9c0,0.1,0,0.1,0.1,0.2s0.1,0.1,0.2,0.1H74
	c0.4,0,0.8,0.1,1.1,0.4c0.3,0.3,0.4,0.6,0.4,1v0.9c0,0.4-0.2,0.7-0.4,1s-0.6,0.4-1.1,0.4h-3.8c-0.4,0-0.8-0.1-1.1-0.4
	s-0.4-0.6-0.4-1v-0.2h1.2v0.2c0,0.1,0,0.1,0.1,0.2s0.1,0.1,0.2,0.1H74c0.1,0,0.1,0,0.2-0.1c0.1,0,0.1-0.1,0.1-0.2v-0.9
	c0-0.1,0-0.1-0.1-0.2s-0.1-0.1-0.2-0.1h-3.8c-0.4,0-0.8-0.1-1.1-0.4s-0.4-0.6-0.4-1V9c0-0.4,0.2-0.7,0.4-1c0.3-0.3,0.6-0.4,1.1-0.4
	H74c0.4,0,0.8,0.1,1.1,0.4C75.2,8.3,75.4,8.6,75.4,9z M78,7.6h3.8c0.4,0,0.8,0.1,1.1,0.4c0.3,0.3,0.4,0.6,0.4,1v3.4
	c0,0.4-0.2,0.7-0.4,1s-0.6,0.4-1.1,0.4H78c-0.4,0-0.8-0.1-1.1-0.4s-0.4-0.6-0.4-1V9c0-0.4,0.2-0.7,0.4-1C77.2,7.7,77.6,7.6,78,7.6z
	 M81.7,8.8H78c-0.1,0-0.1,0-0.2,0.1s-0.1,0-0.1,0.1v3.4c0,0.1,0,0.1,0.1,0.2s0.1,0.1,0.2,0.1h3.8c0.1,0,0.1,0,0.2-0.1
	s0.1-0.1,0.1-0.2V9c0-0.1,0-0.1-0.1-0.2C81.9,8.8,81.8,8.8,81.7,8.8z M92.9,7.6c0.4,0,0.8,0.1,1.1,0.4c0.3,0.3,0.4,0.6,0.4,1v4.8
	h-1.2V9c0-0.1,0-0.1-0.1-0.2S93,8.7,92.9,8.7h-2.6c-0.1,0-0.1,0-0.2,0.1S90,8.9,90,9v4.8h-1.2V9c0-0.1,0-0.1-0.1-0.2
	s-0.1-0.1-0.2-0.1h-2.6c-0.1,0-0.1,0-0.2,0.1c-0.1,0-0.1,0.1-0.1,0.2v4.8h-1.2V7.6C84.4,7.6,92.9,7.6,92.9,7.6z M100.8,7.6
	c0.4,0,0.8,0.1,1.1,0.4c0.3,0.3,0.4,0.6,0.4,1v2.3h-5.5v1.1c0,0.1,0,0.1,0.1,0.2s0.1,0.1,0.2,0.1h5.2v1.1H97c-0.4,0-0.8-0.1-1.1-0.4
	s-0.4-0.6-0.4-1V9c0-0.4,0.2-0.7,0.4-1c0.3-0.3,0.6-0.4,1.1-0.4H100.8L100.8,7.6z M96.8,10.1h4.3V9c0-0.1,0-0.1-0.1-0.2
	s-0.1-0.1-0.2-0.1H97c-0.1,0-0.1,0-0.2,0.1s0,0.1,0,0.2V10.1L96.8,10.1z"/>
<path class="st3" d="M47,6.9c0.4,0,0.8,0.1,1,0.4c0.3,0.3,0.4,0.6,0.4,1v4.8h-5.2c-0.4,0-0.8-0.1-1-0.4s-0.4-0.6-0.4-1V9.4h5.5V8.3
	c0-0.1,0-0.1-0.1-0.2c0,0-0.1-0.1-0.2-0.1h-5.2V6.9C41.7,6.9,47,6.9,47,6.9z M47.2,11.9v-1.4H43v1.1c0,0.1,0,0.1,0.1,0.2
	s0.1,0.1,0.2,0.1C43.2,11.9,47.2,11.9,47.2,11.9z M59.1,6.9h1.3l-2.5,6.2h-1l-2.2-4.6l-2.1,4.6l0,0l0,0h-1L49,6.9h1.3l1.8,4.1
	L54,6.9h1.4l2,4.1L59.1,6.9z M66,6.9c0.4,0,0.8,0.1,1.1,0.4s0.4,0.6,0.4,1v2.3H62v1.1c0,0.1,0,0.1,0.1,0.2c0,0,0.1,0.1,0.2,0.1h5.2
	v1.1h-5.2c-0.4,0-0.8-0.1-1-0.4s-0.4-0.6-0.4-1V8.3c0-0.4,0.2-0.7,0.4-1s0.6-0.4,1-0.4H66L66,6.9z M62,9.4h4.3V8.3
	c0-0.1,0-0.1-0.1-0.2c-0.1-0.1-0.1,0-0.2,0h-3.8c-0.1,0-0.1,0-0.2,0.1s0,0,0,0.1L62,9.4L62,9.4z M75.4,8.3v0.2h-1.2V8.3
	c0-0.1,0-0.1-0.1-0.2c-0.1-0.1-0.1,0-0.2,0h-3.8c-0.1,0-0.1,0-0.2,0.1c-0.1,0-0.1,0.1-0.1,0.2v0.9c0,0.1,0,0.1,0.1,0.2
	s0.1,0.1,0.2,0.1h3.8c0.4,0,0.8,0.1,1.1,0.4c0.3,0.3,0.4,0.6,0.4,1v0.9c0,0.4-0.2,0.7-0.4,1s-0.6,0.4-1.1,0.4h-3.8
	c-0.4,0-0.8-0.1-1.1-0.4s-0.4-0.6-0.4-1v-0.2h1.2v0.2c0,0.1,0,0.1,0.1,0.2s0.1,0.1,0.2,0.1h3.8c0.1,0,0.1,0,0.2-0.1
	c0.1,0,0.1-0.1,0.1-0.2V11c0-0.1,0-0.1-0.1-0.2s-0.1-0.1-0.2-0.1h-3.8c-0.4,0-0.8-0.1-1.1-0.4s-0.4-0.6-0.4-1v-1
	c0-0.4,0.2-0.7,0.4-1s0.6-0.4,1.1-0.4h3.8c0.4,0,0.8,0.1,1.1,0.4C75.2,7.6,75.4,7.9,75.4,8.3z M78,6.9h3.8c0.4,0,0.8,0.1,1.1,0.4
	s0.4,0.6,0.4,1v3.4c0,0.4-0.2,0.7-0.4,1s-0.6,0.4-1.1,0.4H78c-0.4,0-0.8-0.1-1.1-0.4s-0.4-0.6-0.4-1V8.3c0-0.4,0.2-0.7,0.4-1
	C77.2,7,77.6,6.9,78,6.9z M81.7,8.1H78c-0.1,0-0.1,0-0.2,0.1c-0.1,0-0.1,0.1-0.1,0.2v3.4c0,0.1,0,0.1,0.1,0.2s0.1,0.1,0.2,0.1h3.8
	c0.1,0,0.1,0,0.2-0.1s0.1-0.1,0.1-0.2V8.3c0-0.1,0-0.1-0.1-0.2C81.9,8.1,81.8,8.1,81.7,8.1z M92.9,6.9c0.4,0,0.8,0.1,1.1,0.4
	c0.3,0.3,0.4,0.6,0.4,1v4.8h-1.2V8.3c0-0.1,0-0.1-0.1-0.2C93,8,93,8,92.9,8h-2.6c-0.1,0-0.1,0-0.2,0.1C90,8.2,90,8.2,90,8.3v4.8
	h-1.2V8.3c0-0.1,0-0.1-0.1-0.2C88.6,8,88.6,8,88.5,8h-2.6c-0.1,0-0.1,0-0.2,0.1c-0.1,0-0.1,0.1-0.1,0.2v4.8h-1.2V6.9
	C84.4,6.9,92.9,6.9,92.9,6.9z M100.8,6.9c0.4,0,0.8,0.1,1.1,0.4s0.4,0.6,0.4,1v2.3h-5.5v1.1c0,0.1,0,0.1,0.1,0.2S97,12,97.1,12h5.2
	v1.1H97c-0.4,0-0.8-0.1-1.1-0.4s-0.4-0.6-0.4-1V8.3c0-0.4,0.2-0.7,0.4-1s0.6-0.4,1.1-0.4H100.8L100.8,6.9z M96.8,9.4h4.3V8.3
	c0-0.1,0-0.1-0.1-0.2C100.9,8,100.9,8,100.8,8H97c-0.1,0-0.1,0-0.2,0.1c-0.1,0-0.1,0.1-0.1,0.2L96.8,9.4L96.8,9.4z"/>
<g>
	
		<linearGradient id="SVGID_00000062882856063740899810000015691402802003998619_" gradientUnits="userSpaceOnUse" x1="357.6" y1="1515.51" x2="357.6" y2="1501.6038" gradientTransform="matrix(1 0 0 1 -341 -1500.11)">
		<stop  offset="0" style="stop-color:#1D93D2"/>
		<stop  offset="1" style="stop-color:#38B0E3"/>
	</linearGradient>
	
		<ellipse style="fill:url(#SVGID_00000062882856063740899810000015691402802003998619_);stroke:#FFFFFF;stroke-miterlimit:10;" cx="16.6" cy="8.4" rx="7.5" ry="7"/>
	<path class="st5" d="M13.9,8.9l1,2.6c0,0,0.1,0.2,0.3,0.2s2.1-1.9,2.1-1.9l2.2-4L14,8.3L13.9,8.9z"/>
	<path class="st6" d="M15.2,9.6L15,11.5c0,0-0.1,0.6,0.5,0s1.2-1,1.2-1"/>
	<path class="st3" d="M13.9,9l-2.1-0.6c0,0-0.2-0.1-0.2-0.3c0,0,0-0.1,0.1-0.1c0.5-0.3,8.4-3,8.4-3s0.2-0.1,0.4,0
		c0.1,0,0.1,0.1,0.1,0.1c0,0.1,0,0.1,0,0.2s0,0.1,0,0.2c0,0.6-1,4.5-1.2,5.2c0,0.1,0,0.1,0,0.1c-0.1,0.3-0.3,1.2-0.2,0.9l0,0
		c0,0-0.1,0.3-0.4,0.3c-0.1,0-0.1,0-0.2,0s-0.2-0.1-0.3-0.1c-0.2-0.2-0.4-0.3-0.5-0.4c-0.1,0-0.6-0.4-1.2-0.8
		c-0.6-0.4-1.3-0.8-1.5-1c0,0,0,0,0-0.1V9.5c0,0,3.7-3.1,3.8-3.4c0,0,0,0-0.1,0C18.6,6.2,14.3,8.7,13.9,9C14,9,14,9,13.9,9z"/>
	<g>
		<g transform="translate(500 359.485)">
			<g>
				<g>
					<path class="st7" d="M-490.4-351.5l-2.8,2.7v3.1c0,1.3,1.3,2.5,2.9,2.5h3c1.6,0,2.9-1.2,2.9-2.5v-1.7c0-0.1,0.1-0.2,0.3-0.2
						h1.1c0.1,0,0.3,0.1,0.3,0.2v1.7c0,1.3,1.3,2.5,2.9,2.5h3c1.6,0,2.9-1.2,2.9-2.5v-3.1l-2.5-2.4c-0.1-0.1,0,0.4-0.1,0.5v0.3
						c0,0.4-0.1,0.2-0.1,0.5l0.8,0.7c0.2,0.2,0,0.4-0.2,0.4c-1,0-2.9,0-4.6,0l-0.2,0.8c-0.1,0.4-0.1,0.4-0.3,0.5
						c-0.2,0.1-0.4,0-0.6-0.1s-0.3-0.2-0.5-0.4c-0.1-0.1-0.7-0.5-0.7-0.5c-0.1-0.1-0.3-0.2-0.4-0.3c-0.1,0-5.8,0-7.5,0
						c-0.2-0.1-0.3-0.2-0.3-0.3c0,0,0,0,0.1-0.1l0.8-0.8c0.1,0,0-0.1-0.1-0.7"/>
				</g>
			</g>
		</g>
	</g>
</g>
</svg>
