<?xml version="1.0" encoding="utf-8"?>
<!-- Generator: Adobe Illustrator 26.4.1, SVG Export Plug-In . SVG Version: 6.00 Build 0)  -->
<!-- copyright: kalanakt <https://t.me/kinu6> <https://github.com/kalanakt/awesome-telegram> -->
<svg version="1.1" id="Livello_1" xmlns="http://www.w3.org/2000/svg" xmlns:xlink="http://www.w3.org/1999/xlink" x="0px" y="0px"
	 viewBox="0 0 240 240" style="enable-background:new 0 0 240 240;" xml:space="preserve">
<style type="text/css">
	.st0{fill:url(#SVGID_1_);stroke:#FFFFFF;stroke-miterlimit:10;}
	.st1{fill:#C8DAEA;}
	.st2{fill:#A9C6D8;}
	.st3{fill:#FFFFFF;}
	.st4{fill:#494368;}
	.st5{fill:#FC60A8;}
</style>
<linearGradient id="SVGID_1_" gradientUnits="userSpaceOnUse" x1="122.5043" y1="-526.9902" x2="122.5043" y2="-382.5435" gradientTransform="matrix(1 0 0 -1 0 -362.11)">
	<stop  offset="0" style="stop-color:#1D93D2"/>
	<stop  offset="1" style="stop-color:#38B0E3"/>
</linearGradient>
<ellipse class="st0" cx="122.5" cy="92.7" rx="82.1" ry="72.2"/>
<path class="st1" d="M92.6,97.8l11,26.9c0,0,1.4,2.5,2.8,2.5s23.4-20.2,23.4-20.2l24.3-41.6L93,90.8L92.6,97.8z"/>
<path class="st2" d="M107.2,104.7l-2.1,19.8c0,0-0.9,6.1,6,0s13.5-10.8,13.5-10.8"/>
<path class="st3" d="M92.8,98.7l-22.6-6.5c0,0-2.7-0.9-1.9-3.1c0.2-0.5,0.5-0.8,1.6-1.5c5-3.1,92.7-31.1,92.7-31.1s2.5-0.8,3.9-0.3
	c0.8,0.2,1.3,0.8,1.5,1.4c0.2,0.6,0.3,1.2,0.3,1.8c0,0.6-0.1,0.9-0.2,1.7c-0.5,7.7-16.5,64.6-16.5,64.6s-0.9,3.4-4.4,3.4
	c-1.7,0.1-3.3-0.6-4.5-1.6c-6.7-5.1-29.9-18.9-35.1-22c-0.3-0.2-0.3-0.3-0.3-0.6c-0.1-0.3,0.3-0.8,0.3-0.8s40.5-31.9,41.5-35.2
	c0.1-0.3-0.3-0.4-0.6-0.3c-2.7,0.9-49.2,26.9-54.4,29.8C93.6,98.7,93.2,98.8,92.8,98.7z"/>
<g>
	<g transform="translate(500 409.742)">
		<g>
			<g>
				<path class="st4" d="M-471.9-213.6c1.5,0,2.7,0.5,3.9,1.5c1.1,1,1.6,2.3,1.6,3.7v16.1c0,1.1-1,2-2.2,2H-486
					c-1.5,0-2.7-0.5-3.9-1.5c-1.1-1-1.6-2.3-1.6-3.7v-6.6c0-1.1,1-2,2.2-2h15.9c1.2,0,2.2-0.9,2.2-2v-2.3c0-0.3-0.1-0.4-0.3-0.6
					c-0.2-0.2-0.3-0.3-0.6-0.3h-17.3c-1.2,0-2.2-0.9-2.2-2v-0.3c0-1.1,1-2,2.2-2L-471.9-213.6L-471.9-213.6L-471.9-213.6z
					 M-471-194.7v-3.1c0-1.1-1-2-2.2-2h-11.3c-1.2,0-2.2,0.9-2.2,2v2.3c0,0.3,0.1,0.4,0.3,0.6s0.3,0.3,0.6,0.3H-471L-471-194.7z
					 M-426.8-213.6h1.7c1.5,0,2.7,1.3,2.1,2.7l-7.6,19.2c-0.3,0.8-1.1,1.3-2.1,1.3h-0.6c-0.9,0-1.7-0.5-2.1-1.3l-5.6-11.5
					c-0.8-1.7-3.4-1.7-4.2,0.1l-5.7,12.8l-0.1-0.1v0.1h-2.1c-0.9,0-1.8-0.6-2.1-1.3l-8.1-19.2c-0.5-1.3,0.5-2.8,2.1-2.8l0,0
					c0.9,0,1.8,0.6,2.1,1.3l4,9.3c0.8,1.7,3.4,1.7,4.2,0.1l4.3-9.4c0.3-0.8,1.1-1.3,2.1-1.3h2.2c0.9,0,1.7,0.5,2.1,1.3l4.6,9.5
					c0.9,1.7,3.5,1.6,4.2-0.2L-426.8-213.6L-426.8-213.6z M-400.9-213.6c1.5,0,2.7,0.5,3.9,1.5s1.6,2.3,1.6,3.7v6.6c0,1.1-1,2-2.2,2
					h-15.9c-1.2,0-2.2,0.9-2.2,2v2.3c0,0.3,0.1,0.4,0.3,0.6c0.2,0.2,0.3,0.3,0.6,0.3h17.3c1.2,0,2.2,0.9,2.2,2v0.3c0,1.1-1,2-2.2,2
					h-17.3c-1.5,0-2.7-0.5-3.9-1.5s-1.6-2.3-1.6-3.7v-12.9c0-1.4,0.5-2.7,1.6-3.7s2.4-1.5,3.9-1.5L-400.9-213.6L-400.9-213.6z
					 M-413.6-204.1h11.3c1.2,0,2.2-0.9,2.2-2v-2.3c0-0.3-0.1-0.4-0.3-0.6c-0.2-0.2-0.3-0.3-0.6-0.3H-415c-0.3,0-0.4,0.1-0.6,0.3
					s-0.3,0.3-0.3,0.6v2.3C-415.8-205.1-414.8-204.1-413.6-204.1z M-366.1-208.3v0.9h-4.5v-0.9c0-0.3-0.1-0.4-0.3-0.6
					c-0.2-0.2-0.3-0.3-0.6-0.3h-14.1c-0.3,0-0.4,0.1-0.6,0.3c-0.2,0.2-0.3,0.3-0.3,0.6v3.4c0,0.3,0.1,0.4,0.3,0.6
					c0.2,0.2,0.3,0.3,0.6,0.3h14.1c1.5,0,2.7,0.5,3.9,1.5c1.1,1,1.6,2.3,1.6,3.7v3.4c0,1.4-0.5,2.7-1.6,3.7c-1.1,1-2.4,1.5-3.9,1.5
					h-14.1c-1.5,0-2.7-0.5-3.9-1.5c-1.1-1-1.6-2.3-1.6-3.7v-0.9h4.5v0.9c0,0.3,0.1,0.4,0.3,0.6c0.2,0.2,0.3,0.3,0.6,0.3h14.1
					c0.3,0,0.4-0.1,0.6-0.3c0.2-0.2,0.3-0.3,0.3-0.6v-3.4c0-0.3-0.1-0.4-0.3-0.6c-0.2-0.2-0.3-0.3-0.6-0.3h-14.1
					c-1.5,0-2.7-0.5-3.9-1.5c-1.1-1-1.6-2.3-1.6-3.7v-3.4c0-1.4,0.5-2.7,1.6-3.7c1.1-1,2.4-1.5,3.9-1.5h14.1c1.5,0,2.7,0.5,3.9,1.5
					C-366.7-211.1-366.1-209.8-366.1-208.3L-366.1-208.3z M-356.5-213.6h14.1c1.5,0,2.7,0.5,3.9,1.5c1.1,1,1.6,2.3,1.6,3.7v12.9
					c0,1.4-0.5,2.7-1.6,3.7c-1.1,1-2.4,1.5-3.9,1.5h-14.1c-1.5,0-2.7-0.5-3.9-1.5s-1.6-2.3-1.6-3.7v-12.9c0-1.4,0.5-2.7,1.6-3.7
					S-357.9-213.6-356.5-213.6L-356.5-213.6z M-342.4-209.3h-14.1c-0.3,0-0.4,0.1-0.6,0.3s-0.3,0.3-0.3,0.6v12.9
					c0,0.3,0.1,0.4,0.3,0.6c0.2,0.2,0.3,0.3,0.6,0.3h14.1c0.3,0,0.4-0.1,0.6-0.3s0.3-0.3,0.3-0.6v-12.9c0-0.3-0.1-0.4-0.3-0.6
					C-342-209.2-342.2-209.3-342.4-209.3L-342.4-209.3z M-301-213.6c1.5,0,2.7,0.5,3.9,1.5s1.6,2.3,1.6,3.7v16.1c0,1.1-1,2-2.2,2
					l0,0c-1.2,0-2.2-0.9-2.2-2v-16.1c0-0.3-0.1-0.4-0.3-0.6c-0.2-0.2-0.3-0.3-0.7-0.3h-9.7c-0.3,0-0.4,0.1-0.6,0.3s-0.3,0.3-0.3,0.6
					v16.1c0,1.1-1,2-2.2,2l0,0c-1.2,0-2.2-0.9-2.2-2v-16.1c0-0.3-0.1-0.4-0.3-0.6c-0.2-0.2-0.3-0.3-0.6-0.3h-9.7
					c-0.3,0-0.4,0.1-0.6,0.3c-0.2,0.2-0.3,0.3-0.3,0.6v16.1c0,1.1-1,2-2.2,2l0,0c-1.2,0-2.2-0.9-2.2-2v-19.2c0-1.1,1-2,2.2-2
					L-301-213.6L-301-213.6z M-271.5-213.6c1.5,0,2.7,0.5,3.9,1.5c1.1,1,1.6,2.3,1.6,3.7v6.6c0,1.1-1,2-2.2,2h-15.9
					c-1.2,0-2.2,0.9-2.2,2v2.3c0,0.3,0.1,0.4,0.3,0.6c0.2,0.2,0.3,0.3,0.6,0.3h17.3c1.2,0,2.2,0.9,2.2,2v0.3c0,1.1-1,2-2.2,2h-17.3
					c-1.5,0-2.7-0.5-3.9-1.5c-1.1-1-1.6-2.3-1.6-3.7v-12.9c0-1.4,0.5-2.7,1.6-3.7c1.1-1,2.4-1.5,3.9-1.5L-271.5-213.6L-271.5-213.6z
					 M-286.5-204.1h13.5c1.2,0,2.2-0.9,2.2-2v-2.3c0-0.3-0.1-0.4-0.3-0.6c-0.2-0.2-0.3-0.3-0.6-0.3h-14.1c-0.3,0-0.4,0.1-0.6,0.3
					c-0.2,0.2-0.3,0.3-0.3,0.6V-204.1L-286.5-204.1z"/>
			</g>
		</g>
	</g>
	<g transform="translate(500 359.485)">
		<g>
			<g>
				<path class="st4" d="M-486.8-163.6c0,0.3,0.1,0.4,0.3,0.6c0.2,0.2,0.3,0.3,0.6,0.3h15l0,0"/>
				<path class="st5" d="M-458.6-271.8l-31.8,29.2l0,0v33c0,14.9,15.2,27.1,33.9,27.1h35.7c18.7,0,33.9-12.2,33.9-27.1v-19.2
					c0-1.4,1.3-2.5,2.8-2.5h12.7c1.6,0,2.8,1.2,2.8,2.5v19.2c0,14.9,15.2,27.1,33.9,27.1h35.7c18.7,0,33.9-12.2,33.9-27.1v-33l0,0
					l-30.7-26.7c-1.1-1,0.8,5-0.3,6.1v2c0,4.1-0.8,3.9-1.1,7l9.3,7.1c1.9,1.6,0.5,4.4-2,4.4h-175.6c-2.6,0-3.9-2.8-2-4.4l9.2-8
					c0.9-0.8-0.2-3.1-0.6-8.2"/>
			</g>
		</g>
	</g>
	<g transform="translate(500 359.485)">
		<g>
			<g>
				<path class="st4" d="M-486.8-163.6c0,0.3,0.1,0.4,0.3,0.6c0.2,0.2,0.3,0.3,0.6,0.3h15l0,0"/>
			</g>
		</g>
	</g>
</g>
<path class="st3" d="M126.2,116.9l18.4,12c0.9,0.6,3.2,0.5,4.1-0.1l0,0c0.9-0.5,2.5-2,2.8-2.9l0.1-0.2v-0.1c0.9-2.8,1.8-5.6,2.5-8.9
	c0.5-2.3,0.9-4.5,1.2-6.6"/>
</svg>
