<?xml version="1.0" encoding="utf-8"?>
<!-- Generator: Adobe Illustrator 26.4.1, SVG Export Plug-In . SVG Version: 6.00 Build 0)  -->
<!-- copyright: kalanakt <https://t.me/kinu6> <https://github.com/kalanakt/awesome-telegram> -->
<svg version="1.1" id="Livello_1" xmlns="http://www.w3.org/2000/svg" xmlns:xlink="http://www.w3.org/1999/xlink" x="0px" y="0px"
	 viewBox="0 0 240 240" style="enable-background:new 0 0 240 240;" xml:space="preserve">
<style type="text/css">
	.st0{fill:url(#SVGID_1_);stroke:#FFFFFF;stroke-miterlimit:10;}
	.st1{fill:#C8DAEA;}
	.st2{fill:#A9C6D8;}
	.st3{fill:#FFFFFF;}
	.st4{fill:#494368;}
	.st5{fill:#FC60A8;}
</style>
<linearGradient id="SVGID_1_" gradientUnits="userSpaceOnUse" x1="119.5313" y1="775.3567" x2="119.5313" y2="603.6501" gradientTransform="matrix(1 0 0 1 0 -602)">
	<stop  offset="0" style="stop-color:#1D93D2"/>
	<stop  offset="1" style="stop-color:#38B0E3"/>
</linearGradient>
<ellipse class="st0" cx="119.5" cy="87.5" rx="95.7" ry="85.9"/>
<path class="st1" d="M84.6,93.6l12.8,32c0,0,1.6,3,3.3,3s27.3-24,27.3-24l28.3-49.5L85.1,85.3L84.6,93.6z"/>
<path class="st2" d="M101.6,101.8l-2.4,23.6c0,0-1,7.2,7,0c8-7.2,15.7-12.8,15.7-12.8"/>
<path class="st3" d="M84.9,94.7L58.5,87c0,0-3.1-1.1-2.2-3.7c0.2-0.6,0.6-1,1.9-1.8c5.8-3.7,108.1-37,108.1-37s2.9-0.9,4.6-0.3
	c0.9,0.2,1.5,0.9,1.7,1.7c0.2,0.7,0.3,1.4,0.3,2.1c0,0.7-0.1,1.1-0.2,2c-0.6,9.1-19.3,76.8-19.3,76.8s-1.1,4-5.1,4.1
	c-2,0.1-3.9-0.7-5.3-1.9c-7.8-6.1-34.9-22.5-40.9-26.2c-0.3-0.2-0.4-0.4-0.4-0.7c-0.1-0.4,0.4-0.9,0.4-0.9s47.2-37.9,48.4-41.9
	c0.1-0.3-0.3-0.5-0.7-0.3c-3.1,1.1-57.4,32-63.4,35.4C85.8,94.7,85.3,94.8,84.9,94.7z"/>
<g>
	<g transform="translate(500 409.742)">
		<g>
			<g>
				<path class="st4" d="M-490.6-199.2c1.8,0,3.2,0.6,4.5,1.8c1.3,1.2,1.9,2.7,1.9,4.4v19.1c0,1.3-1.2,2.4-2.6,2.4H-507
					c-1.8,0-3.2-0.6-4.5-1.8c-1.3-1.2-1.9-2.7-1.9-4.4v-7.8c0-1.3,1.2-2.4,2.6-2.4h18.5c1.4,0,2.6-1.1,2.6-2.4v-2.7
					c0-0.3-0.1-0.5-0.3-0.7c-0.2-0.2-0.4-0.3-0.7-0.3h-20.2c-1.4,0-2.6-1.1-2.6-2.4v-0.3c0-1.3,1.2-2.4,2.6-2.4h20.2V-199.2z
					 M-489.5-176.7v-3.7c0-1.3-1.2-2.4-2.6-2.4h-13.2c-1.4,0-2.6,1.1-2.6,2.4v2.7c0,0.3,0.1,0.5,0.3,0.7c0.2,0.2,0.4,0.3,0.7,0.3
					H-489.5L-489.5-176.7z M-438-199.2h2c1.8,0,3.1,1.6,2.5,3.2l-8.9,22.8c-0.4,1-1.3,1.6-2.5,1.6h-0.7c-1.1,0-2-0.6-2.4-1.5
					l-6.5-13.7c-0.9-2-4-2-4.9,0.1l-6.7,15.2l-0.1-0.1v0.1h-2.4c-1.1,0-2.1-0.7-2.5-1.5l-9.4-22.8c-0.6-1.5,0.6-3.3,2.5-3.3l0,0
					c1.1,0,2.1,0.7,2.5,1.5l4.7,11.1c0.9,2,4,2,4.9,0.1l5-11.2c0.4-0.9,1.3-1.5,2.4-1.5h2.6c1.1,0,2,0.6,2.4,1.5l5.4,11.3
					c1,2,4.1,1.9,4.9-0.2L-438-199.2L-438-199.2z M-407.8-199.2c1.8,0,3.2,0.6,4.5,1.8c1.3,1.2,1.9,2.7,1.9,4.4v7.8
					c0,1.3-1.2,2.4-2.6,2.4h-18.5c-1.4,0-2.6,1.1-2.6,2.4v2.7c0,0.3,0.1,0.5,0.3,0.7c0.2,0.2,0.4,0.3,0.7,0.3h20.2
					c1.4,0,2.6,1.1,2.6,2.4v0.3c0,1.3-1.2,2.4-2.6,2.4h-20.2c-1.8,0-3.2-0.6-4.5-1.8c-1.3-1.2-1.9-2.7-1.9-4.4v-15.3
					c0-1.7,0.6-3.2,1.9-4.4c1.3-1.2,2.8-1.8,4.5-1.8L-407.8-199.2L-407.8-199.2z M-422.6-187.9h13.2c1.4,0,2.6-1.1,2.6-2.4v-2.7
					c0-0.3-0.1-0.5-0.3-0.7c-0.2-0.2-0.4-0.3-0.7-0.3h-16.4c-0.3,0-0.5,0.1-0.7,0.3c-0.2,0.2-0.3,0.4-0.3,0.7v2.7
					C-425.2-189-424-187.9-422.6-187.9z M-367.2-192.9v1.1h-5.3v-1.1c0-0.3-0.1-0.5-0.3-0.7c-0.2-0.2-0.4-0.3-0.7-0.3h-16.4
					c-0.3,0-0.5,0.1-0.7,0.3c-0.2,0.2-0.3,0.4-0.3,0.7v4.1c0,0.3,0.1,0.5,0.3,0.7c0.2,0.2,0.4,0.3,0.7,0.3h16.4
					c1.8,0,3.2,0.6,4.5,1.8c1.3,1.2,1.9,2.7,1.9,4.4v4.1c0,1.7-0.6,3.2-1.9,4.4s-2.8,1.8-4.5,1.8h-16.4c-1.8,0-3.2-0.6-4.5-1.8
					c-1.3-1.2-1.9-2.7-1.9-4.4v-1.1h5.3v1.1c0,0.3,0.1,0.5,0.3,0.7c0.2,0.2,0.4,0.3,0.7,0.3h16.4c0.3,0,0.5-0.1,0.7-0.3
					c0.2-0.2,0.3-0.4,0.3-0.7v-4.1c0-0.3-0.1-0.5-0.3-0.7c-0.2-0.2-0.4-0.3-0.7-0.3H-390c-1.8,0-3.2-0.6-4.5-1.8
					c-1.3-1.2-1.9-2.7-1.9-4.4v-4.1c0-1.7,0.6-3.2,1.9-4.4c1.3-1.2,2.8-1.8,4.5-1.8h16.4c1.8,0,3.2,0.6,4.5,1.8
					C-367.9-196.2-367.2-194.6-367.2-192.9L-367.2-192.9z M-356-199.2h16.4c1.8,0,3.2,0.6,4.5,1.8c1.3,1.2,1.9,2.7,1.9,4.4v15.3
					c0,1.7-0.6,3.2-1.9,4.4c-1.3,1.2-2.8,1.8-4.5,1.8H-356c-1.8,0-3.2-0.6-4.5-1.8c-1.3-1.2-1.9-2.7-1.9-4.4V-193
					c0-1.7,0.6-3.2,1.9-4.4C-359.2-198.6-357.7-199.2-356-199.2L-356-199.2z M-339.6-194H-356c-0.3,0-0.5,0.1-0.7,0.3
					s-0.3,0.4-0.3,0.7v15.3c0,0.3,0.1,0.5,0.3,0.7c0.2,0.2,0.4,0.3,0.7,0.3h16.4c0.3,0,0.5-0.1,0.7-0.3c0.2-0.2,0.3-0.4,0.3-0.7
					v-15.3c0-0.3-0.1-0.5-0.3-0.7C-339.1-193.9-339.3-194-339.6-194L-339.6-194z M-291.3-199.2c1.8,0,3.2,0.6,4.5,1.8
					c1.3,1.2,1.9,2.7,1.9,4.4v19.1c0,1.3-1.2,2.4-2.6,2.4l0,0c-1.4,0-2.6-1.1-2.6-2.4V-193c0-0.3-0.1-0.5-0.3-0.7
					c-0.2-0.2-0.4-0.3-0.8-0.3h-11.3c-0.3,0-0.5,0.1-0.7,0.3c-0.2,0.2-0.3,0.4-0.3,0.7v19.1c0,1.3-1.2,2.4-2.6,2.4l0,0
					c-1.4,0-2.6-1.1-2.6-2.4V-193c0-0.3-0.1-0.5-0.3-0.7c-0.2-0.2-0.4-0.3-0.7-0.3h-11.3c-0.3,0-0.5,0.1-0.7,0.3
					c-0.2,0.2-0.3,0.4-0.3,0.7v19.1c0,1.3-1.2,2.4-2.6,2.4l0,0c-1.4,0-2.6-1.1-2.6-2.4v-22.8c0-1.3,1.2-2.4,2.6-2.4L-291.3-199.2
					L-291.3-199.2z M-256.9-199.2c1.8,0,3.2,0.6,4.5,1.8c1.3,1.2,1.9,2.7,1.9,4.4v7.8c0,1.3-1.2,2.4-2.6,2.4h-18.5
					c-1.4,0-2.6,1.1-2.6,2.4v2.7c0,0.3,0.1,0.5,0.3,0.7c0.2,0.2,0.4,0.3,0.7,0.3h20.2c1.4,0,2.6,1.1,2.6,2.4v0.3
					c0,1.3-1.2,2.4-2.6,2.4h-20.2c-1.8,0-3.2-0.6-4.5-1.8c-1.3-1.2-1.9-2.7-1.9-4.4v-15.3c0-1.7,0.6-3.2,1.9-4.4
					c1.3-1.2,2.8-1.8,4.5-1.8L-256.9-199.2L-256.9-199.2z M-274.4-187.9h15.8c1.4,0,2.6-1.1,2.6-2.4v-2.7c0-0.3-0.1-0.5-0.3-0.7
					c-0.2-0.2-0.4-0.3-0.7-0.3h-16.4c-0.3,0-0.5,0.1-0.7,0.3s-0.3,0.4-0.3,0.7L-274.4-187.9L-274.4-187.9z"/>
			</g>
		</g>
	</g>
	<g transform="translate(500 359.485)">
		<g>
			<g>
				<path class="st4" d="M-508-149.2c0,0.3,0.1,0.5,0.3,0.7c0.2,0.2,0.4,0.3,0.7,0.3h17.5l0,0"/>
				<path class="st5" d="M-475.1-277.9l-37.1,34.7l0,0v39.3c0,17.7,17.7,32.2,39.5,32.2h41.6c21.8,0,39.5-14.5,39.5-32.2v-22.8
					c0-1.7,1.5-3,3.3-3h14.8c1.9,0,3.3,1.4,3.3,3v22.8c0,17.7,17.7,32.2,39.5,32.2h41.6c21.8,0,39.5-14.5,39.5-32.2v-39.3l0,0
					l-35.8-31.7c-1.3-1.2,0.9,5.9-0.4,7.3v2.4c0,4.9-0.9,4.6-1.3,8.3l10.9,8.5c2.2,1.9,0.6,5.2-2.3,5.2h-204.8c-3,0-4.5-3.3-2.3-5.2
					l10.7-9.5c1-0.9-0.2-3.7-0.7-9.8"/>
			</g>
		</g>
	</g>
	<g transform="translate(500 359.485)">
		<g>
			<g>
				<path class="st4" d="M-508-149.2c0,0.3,0.1,0.5,0.3,0.7c0.2,0.2,0.4,0.3,0.7,0.3h17.5l0,0"/>
			</g>
		</g>
	</g>
</g>
<path class="st3" d="M123.8,116.3l21.5,14.3c1.1,0.7,3.7,0.6,4.8-0.1l0,0c1.1-0.6,2.9-2.4,3.3-3.5l0.1-0.2v-0.1
	c1.1-3.3,2.1-6.7,2.9-10.6c0.6-2.7,1.1-5.3,1.4-7.8"/>
</svg>
